<?xml version="1.0" encoding="UTF-8"?>
<svg width="512" height="512" viewBox="0 0 512 512" fill="none" xmlns="http://www.w3.org/2000/svg">
  <rect width="512" height="512" rx="100" fill="#1E40AF"/>
  <path d="M175.808 256.576C175.808 221.504 204.224 193.088 239.296 193.088H272.704C307.776 193.088 336.192 221.504 336.192 256.576C336.192 291.648 307.776 320.064 272.704 320.064H239.296C204.224 320.064 175.808 291.648 175.808 256.576Z" fill="white"/>
  <path d="M137.92 364.672C137.92 329.6 166.336 301.184 201.408 301.184H234.816C269.888 301.184 298.304 329.6 298.304 364.672C298.304 399.744 269.888 428.16 234.816 428.16H201.408C166.336 428.16 137.92 399.744 137.92 364.672Z" fill="white" fill-opacity="0.8"/>
  <path d="M213.76 147.328C213.76 112.256 242.176 83.84 277.248 83.84H310.656C345.728 83.84 374.144 112.256 374.144 147.328C374.144 182.4 345.728 210.816 310.656 210.816H277.248C242.176 210.816 213.76 182.4 213.76 147.328Z" fill="white" fill-opacity="0.8"/>
</svg>